<?xml version="1.0" encoding="UTF-8"?><svg id="Livello_1" xmlns="http://www.w3.org/2000/svg" viewBox="0 0 156.85 298.76"><defs><style>.cls-1{fill:none;}.cls-2{fill:#d42324;}</style></defs><path class="cls-1" d="M97.14,209.25c0-2.68-.47-5.13-1.4-7.37-.84-1.99-1.96-3.75-3.38-5.31v25.35c1.42-1.55,2.55-3.32,3.38-5.31,.94-2.23,1.4-4.69,1.4-7.37Z"/><path class="cls-1" d="M68.75,188.37c.11-.05,.22-.09,.33-.14,2.2-.87,4.56-1.4,7.1-1.59v-10.39h-7.43v12.12Z"/><path class="cls-1" d="M59.64,209.25c0,2.64,.47,5.08,1.4,7.34,.82,1.97,1.93,3.73,3.33,5.26v-25.18c-1.4,1.54-2.52,3.28-3.33,5.23-.94,2.24-1.4,4.69-1.4,7.37Z"/><path class="cls-1" d="M68.75,193.21v32.1c.71,.41,1.46,.76,2.25,1.07,1.63,.65,3.35,1.07,5.18,1.25v-36.75c-1.83,.18-3.55,.6-5.18,1.25-.79,.31-1.54,.67-2.25,1.08Z"/><path class="cls-1" d="M54.35,259.01c-1.2,0-2.19-.97-2.19-2.19s.98-2.19,2.19-2.19h10.03v-26.9c-.97-.67-1.88-1.43-2.73-2.26-2.1-2.06-3.74-4.46-4.91-7.2-1.17-2.75-1.75-5.75-1.75-9.03s.59-6.28,1.75-9.02c1.17-2.74,2.81-5.14,4.91-7.21,.85-.83,1.76-1.59,2.73-2.26v-32.21h.01v-4.16c-30.47,6.47-53.38,33.58-53.38,65.95s22.91,59.47,53.37,65.94v-27.27h-10.03Z"/><path class="cls-1" d="M92.35,176.25v14.42c1.01,.69,1.96,1.46,2.84,2.32,2.1,2.04,3.75,4.45,4.91,7.21,1.17,2.76,1.75,5.78,1.75,9.05s-.59,6.29-1.75,9.06-2.81,5.16-4.91,7.2c-.88,.86-1.83,1.63-2.84,2.32v26.8h9.35c1.21,0,2.19,.98,2.19,2.19s-.97,2.19-2.19,2.19h-9.35v27.29c30.51-6.43,53.49-33.57,53.49-65.96s-22.93-59.48-53.39-65.95v21.86h-.1Z"/><path class="cls-1" d="M80.55,186.63c2.57,.18,4.97,.72,7.22,1.6,.07,.03,.14,.06,.22,.09v-12.08h-7.44v10.38Z"/><path class="cls-1" d="M80.55,190.86v36.79c1.89-.17,3.66-.6,5.34-1.27,.73-.29,1.43-.62,2.1-1v-32.25c-.67-.37-1.37-.71-2.1-1.01-1.67-.67-3.45-1.09-5.34-1.27Z"/><path d="M92.45,60.75c2.05-1.37,3.41-3.7,3.41-6.35v-6.45h3.55v2.63c0,.98,.8,1.78,1.79,1.78s1.78-.8,1.78-1.78v-10c0-.98-.8-1.78-1.78-1.78s-1.79,.8-1.79,1.78v2.99h-3.55v-11.61h4.18v3c0,.98,.8,1.78,1.79,1.78s1.78-.8,1.78-1.78v-10c0-.98-.8-1.78-1.78-1.78s-1.79,.8-1.79,1.78v2.62h-4.18V15.94h4.8v2.81c0,.98,.8,1.78,1.79,1.78s1.78-.8,1.78-1.78V8.75c0-.98-.8-1.78-1.78-1.78s-1.79,.8-1.79,1.78v2.82h-4.8v-3.95c0-4.2-3.42-7.62-7.62-7.62h-19.6c-4.2,0-7.62,3.42-7.62,7.62v3.95h-4.86v-2.82c0-.98-.8-1.78-1.78-1.78s-1.79,.8-1.79,1.78v10c0,.98,.8,1.78,1.79,1.78s1.78-.8,1.78-1.78v-2.81h4.86v11.67h-4.23v-2.62c0-.98-.8-1.78-1.78-1.78s-1.79,.8-1.79,1.78v10c0,.98,.8,1.78,1.79,1.78s1.78-.8,1.78-1.78v-3h4.23v11.61h-3.61v-2.99c0-.98-.8-1.78-1.78-1.78s-1.79,.8-1.79,1.78v10c0,.98,.8,1.78,1.79,1.78s1.78-.8,1.78-1.78v-2.63h3.61v6.45c0,2.63,1.34,4.96,3.38,6.32v97.82h-.01v32.21c-.97,.67-1.88,1.43-2.73,2.26-2.1,2.07-3.74,4.47-4.91,7.21-1.17,2.74-1.75,5.75-1.75,9.02s.59,6.28,1.75,9.03c1.17,2.74,2.81,5.14,4.91,7.2,.85,.83,1.75,1.59,2.73,2.26v26.9h-10.03c-1.2,0-2.19,.98-2.19,2.19s.98,2.19,2.19,2.19h10.03v27.27c1.44,.31,2.9,.57,4.37,.78v-28.05h7.43v28.71c.74,.03,1.49,.04,2.25,.04,.71,0,1.42-.01,2.12-.04v-28.71h7.44v28.07c1.47-.21,2.93-.46,4.37-.77v-27.29h9.35c1.21,0,2.19-.97,2.19-2.19s-.97-2.19-2.19-2.19h-9.35v-26.8c1.01-.69,1.96-1.47,2.84-2.32,2.1-2.04,3.75-4.44,4.91-7.2s1.75-5.78,1.75-9.06-.59-6.29-1.75-9.05c-1.17-2.77-2.81-5.17-4.91-7.21-.88-.86-1.83-1.63-2.84-2.32l.1-129.92Zm-28.08,161.09c-1.4-1.53-2.52-3.28-3.33-5.26-.94-2.25-1.4-4.69-1.4-7.34s.47-5.13,1.4-7.37c.82-1.95,1.93-3.69,3.33-5.23v25.18Zm11.8,32.8h-7.43v-24.52c.12,.06,.24,.1,.36,.15,2.21,.87,4.56,1.4,7.07,1.6v22.77Zm0-27.01c-1.83-.19-3.55-.61-5.18-1.25-.79-.31-1.54-.67-2.25-1.07v-32.1c.71-.41,1.46-.77,2.25-1.08,1.63-.65,3.35-1.07,5.18-1.25v36.75Zm0-40.99c-2.53,.19-4.9,.72-7.1,1.59-.11,.04-.22,.09-.33,.14v-12.12h7.43v10.39Zm11.81,67.99h-7.44v-22.76c2.57-.19,4.97-.72,7.22-1.62,.07-.03,.14-.06,.22-.09v24.47Zm0-29.26c-.67,.37-1.37,.71-2.1,1-1.67,.67-3.45,1.1-5.34,1.27v-36.79c1.89,.17,3.66,.6,5.34,1.27,.73,.29,1.43,.63,2.1,1.01v32.25Zm0-37.05c-.07-.04-.14-.06-.22-.09-2.25-.89-4.65-1.42-7.22-1.6v-10.38h7.44v12.08Zm.1-16.45h-19.32V62.56h19.32v109.32Zm3.52-117.48c0,1.85-1.51,3.37-3.37,3.37h-19.6c-1.85,0-3.37-1.51-3.37-3.37V7.62c0-1.85,1.51-3.37,3.37-3.37h19.6c1.85,0,3.37,1.51,3.37,3.37V54.4Zm4.13,147.48c.94,2.24,1.4,4.69,1.4,7.37s-.47,5.14-1.4,7.37c-.84,1.99-1.96,3.76-3.38,5.31v-25.35c1.42,1.55,2.55,3.32,3.38,5.31Z"/><path class="cls-2" d="M92.45,143.18v11.21c30.46,6.47,53.39,33.58,53.39,65.95s-22.98,59.53-53.49,65.96c-1.44,.31-2.9,.57-4.37,.77-2.44,.35-4.92,.57-7.44,.64-.71,.02-1.41,.04-2.12,.04-.76,0-1.5-.01-2.25-.04-2.52-.07-4.99-.3-7.43-.66-1.47-.21-2.93-.47-4.37-.78-30.46-6.47-53.37-33.58-53.37-65.94s22.92-59.48,53.38-65.95v-11.21C27.82,149.81,0,181.89,0,220.34c0,43.24,35.18,78.42,78.43,78.42s78.42-35.18,78.42-78.42c0-38.45-27.83-70.53-64.39-77.16Z"/></svg>