<?xml version="1.0" encoding="UTF-8"?><svg id="Livello_1" xmlns="http://www.w3.org/2000/svg" viewBox="0 0 200.8 298.72"><defs><style>.cls-1{fill:#128ece;}</style></defs><path d="M5.56,16.9C8.97,8.8,16.29,1.87,25.22,.47c6.73-1,13.48,.61,19.83,2.69,6.19,2.06,12.28,4.51,18.31,6.86,11.93,4.6,24.15,8.59,36.82,10.39,12.58,2,25.47,1.78,38.17,.57,12.99-1.14,25.62-3.79,38.84-3.89,7.78,.04,16.16,1.92,20.4,9.11,.57,.94,1.04,1.92,1.43,2.94-3.3-6.06-8.69-8.93-15.44-9.45-6.38-.42-12.7,.6-19.02,1.67-12.52,2.24-26.04,4.84-38.77,5.49-17.59,1.06-35.43-1.72-51.96-7.72-12.36-4.25-23.74-10.49-36.05-14.43-13.56-4.51-24.81,.03-32.22,12.2h0Z"/><path d="M117.14,298.72c-.92,0-1.81-.01-2.66-.03h-.09c-26.22-.65-41.45-6.39-44.05-16.58-1.28-5.03,.54-10.73,5.42-16.95-19.85-17.43-45.87-47.14-60.16-91.32C-1.55,120.85,7.5,74.21,14.42,51.12l3.64,1.09c-6.79,22.66-15.68,68.44,1.15,120.46,14.36,44.38,40.78,73.89,60.42,90.82l1.43,1.23-1.22,1.44c-3.38,3.99-7.14,9.83-5.82,15,2.07,8.13,16.82,13.13,40.46,13.72h.09c17.7,.44,37.61-3.4,39.68-11.39,.51-1.96-.12-3.71-.33-4.29-6.51-18.17-4.82-78.54-4.01-107.55,1.04-37.27,12.08-78.95,32.8-123.89l3.45,1.59c-20.51,44.46-31.43,85.64-32.46,122.4-.74,26.53-2.48,88.67,3.77,106.13,.83,2.3,.97,4.5,.44,6.56-2.93,11.32-25.87,14.28-40.79,14.28Z"/><path class="cls-1" d="M184.49,18.07c6.2,1.18,11.62,5.49,13.32,11.42,1.55,5.61-.37,12.18-5.28,15.45-7.92,5.54-19.64-.4-17.86-10.39,.95-4.13,4.78-7.78,9.25-7.1,2.15,.26,4.19,1.29,5.33,3.03,1.69,2.57,1.88,6.74-.92,8.6-1.72,1.16-4.43,1.55-6.1,.12-1.77-1.35-1.94-4.66,.31-5.58,1.32-.58,2.42,.4,2.03,1.8,.67-1.55-.61-2.75-2.18-2.32-3.06,.84-3.25,5.17-1.14,7.11,2.13,2.2,5.63,2.06,8.15,.65,2.69-1.43,3.93-4.78,3.56-7.68-.5-8.17-11.03-11.66-17.07-6.71-7.66,5.97-6.07,17.64,2.21,22.16,7.62,4.48,18.25,.47,21.38-7.69,4.56-10.93-3.53-22.52-15.01-22.88h0Z"/><path d="M41.44,50.96l-1.51-.27-.59,1.41c-.72,1.73-1.4,3.46-2.06,5.2,1.32-.49,2.62-1.1,3.86-1.83,1.89-1.03,3.59-2.27,5.09-3.67-1.6-.26-3.2-.54-4.79-.83Z"/><path class="cls-1" d="M46.23,51.79c-1.5,1.4-3.2,2.64-5.09,3.67-1.25,.73-2.54,1.34-3.86,1.83-6.63,2.44-14.01,1.89-20.4-.95-1.19-.52-2.34-1.13-3.45-1.81-4.94-3-8.96-7.49-11.08-13.02C-5.93,21.67,8.75,.66,29.58,0c-.28,.05-.56,.11-.84,.17h-.08s0,0-.02,0c-5.35,1.21-10.38,3.64-14.4,7.11,0,0-.02,.02-.03,.03-4.14,3.55-7.27,8.12-8.8,13.41-2.82,10.17,.66,22.11,9.58,28.04,14.37,10.06,35.63-.73,32.4-18.85-1.73-7.49-8.68-14.12-16.78-12.89-3.91,.47-7.61,2.35-9.67,5.51-3.06,4.66-3.4,12.23,1.68,15.6,3.11,2.1,8.04,2.81,11.06,.21,3.2-2.46,3.52-8.45-.57-10.13-2.4-1.07-4.4,.72-3.68,3.26-1.21-2.82,1.1-5,3.96-4.21,5.55,1.51,5.89,9.37,2.06,12.89-3.87,3.99-10.22,3.74-14.8,1.17-4.87-2.59-7.14-8.67-6.47-13.94,.92-14.81,20.02-21.16,30.97-12.16,12.14,9.46,11.47,26.83,1.08,36.55Z"/><path d="M157.33,51.74c-17.92,3.03-36.17,4.59-54.35,4.66-.08,0-.15,0-.23,0-2.02,0-4.05,0-6.07-.03-16.84-.25-33.79-1.79-50.45-4.58-1.5,1.4-3.2,2.64-5.09,3.67-1.25,.73-2.54,1.34-3.86,1.83-10.54,27.69-14.33,56.71-10.99,84.29,3.58,29.52,15.2,55.95,33.59,76.45,23.8,26.53,53.82,37.57,74.81,42.15l2.53,.56-.23-2.58c-2.96-33.3-2.7-67.03,.77-100.25,3.67-35.14,10.97-70.04,21.68-103.73l.94-2.97-3.07,.52Zm-115.05,3.24c3.99,.71,8,1.35,12.02,1.91l-8.2,134.98c-21.05-38.76-22.96-89.55-3.82-136.89Zm5.88,140.54L56.57,57.2c1.59,.21,3.2,.42,4.79,.61l-10.13,142.66c-1.06-1.62-2.08-3.27-3.07-4.94Zm5.13,8.03L63.63,58.07c1.76,.21,3.52,.39,5.29,.56l-11.75,150.2c-1.34-1.72-2.63-3.48-3.87-5.27Zm9.55,12.07s-.08-.08-.11-.12c-1.19-1.33-2.35-2.69-3.48-4.06l11.94-152.61c1.32,.13,2.65,.24,3.97,.33l-12.32,156.45Zm2.11,2.28l12.48-158.56c1.26,.09,2.52,.17,3.78,.25l-12.49,162.13c-1.27-1.22-2.53-2.5-3.77-3.82Zm5.9,5.83l12.64-164.02c1.51,.08,3.03,.16,4.54,.22l-12.64,167.8c-1.53-1.29-3.05-2.62-4.55-4Zm6.71,5.77l12.77-169.48c1.51,.05,3.04,.09,4.55,.11l-12.76,172.84c-1.53-1.11-3.05-2.27-4.56-3.48Zm6.73,5.02l12.87-174.34c1.77,.02,3.55,.03,5.32,.02l-12.9,177.81c-1.76-1.1-3.53-2.27-5.29-3.49Zm7.48,4.83l13-179.16c1.26-.02,2.53-.03,3.8-.06l-13.01,181.42c-1.26-.7-2.53-1.43-3.8-2.2Zm6.01,3.4l13.09-182.68c1.52-.04,3.04-.09,4.56-.15l-13.14,185.12c-1.5-.72-3-1.48-4.52-2.29Zm6.73,3.34l13.22-186.28c1.52-.07,3.05-.15,4.58-.25l-13.26,188.54c-1.5-.62-3.02-1.29-4.54-2.01Zm6.76,2.93l13.34-189.6c1.53-.11,3.06-.22,4.58-.35l-13.4,191.69c-1.49-.54-3-1.12-4.52-1.73Zm6.76,2.53l13.47-192.67c1.8-.15,3.61-.33,5.4-.52l-13.51,194.95c-1.76-.53-3.55-1.11-5.36-1.75Zm15.97-94.03c-3.41,32.61-3.74,65.69-1,98.38-2.36-.56-4.82-1.19-7.36-1.93l13.59-195.87c5.25-.58,10.48-1.29,15.69-2.11-10.29,33.02-17.31,67.17-20.91,101.54Z"/><path d="M102.98,56.4c-.08,0-.15,0-.23,0v-.02l.23,.02Z"/></svg>