<?xml version="1.0" encoding="UTF-8"?><svg id="Livello_1" xmlns="http://www.w3.org/2000/svg" viewBox="0 0 192.85 405.25"><defs><style>.cls-1{fill:none;}.cls-2{fill:#f49919;}.cls-3{fill:#fff;}.cls-4{fill:#070707;}</style></defs><polygon class="cls-1" points="86.77 271.14 86.77 281.93 89.05 281.93 89.02 271.14 86.77 271.14"/><polygon class="cls-1" points="100.03 295.77 100.01 284.71 97.38 284.71 97.4 295.77 100.03 295.77"/><polygon class="cls-1" points="100.1 320.15 100.07 312.11 97.44 312.11 97.47 320.15 100.1 320.15"/><polygon class="cls-1" points="96.33 309.33 96.33 309.32 96.31 298.54 93.67 298.54 93.7 309.32 93.7 309.33 96.33 309.33"/><polygon class="cls-1" points="86.77 298.54 86.77 309.33 89.11 309.33 89.11 309.32 89.09 298.54 86.77 298.54"/><polygon class="cls-1" points="103.04 268.36 103 256.19 101.05 256.19 101.08 268.36 103.04 268.36"/><polygon class="cls-1" points="96.35 320.15 96.33 312.11 93.7 312.11 93.72 320.15 96.35 320.15"/><polygon class="cls-1" points="96.26 281.93 96.24 271.14 93.61 271.14 93.62 281.93 96.26 281.93"/><polygon class="cls-1" points="96.23 268.36 96.2 256.19 93.57 256.19 93.6 268.36 96.23 268.36"/><polygon class="cls-1" points="103.13 309.33 103.13 309.32 103.11 298.54 101.16 298.54 101.18 309.32 101.18 309.33 103.13 309.33"/><polygon class="cls-1" points="103.16 320.15 103.14 312.11 101.19 312.11 101.21 320.15 103.16 320.15"/><polygon class="cls-1" points="103.1 295.77 103.08 284.71 101.12 284.71 101.15 295.77 103.1 295.77"/><polygon class="cls-1" points="100.07 309.33 100.07 309.32 100.05 298.54 97.42 298.54 97.43 309.32 97.43 309.33 100.07 309.33"/><polygon class="cls-1" points="103.07 281.93 103.04 271.14 101.09 271.14 101.11 281.93 103.07 281.93"/><polygon class="cls-1" points="100 281.93 99.98 271.14 97.35 271.14 97.37 281.93 100 281.93"/><polygon class="cls-1" points="99.97 268.36 99.94 256.19 97.31 256.19 97.35 268.36 99.97 268.36"/><polygon class="cls-1" points="134.43 9.47 128.55 9.81 128.54 9.81 122.39 15.35 120.76 13.54 119.23 14.9 120.87 16.72 114.58 22.38 112.9 20.52 111.25 21.98 112.94 23.85 106.64 29.5 104.93 27.59 103.28 29.06 105 30.98 98.72 36.63 96.96 34.67 95.26 36.18 97.03 38.15 90.74 43.8 88.93 41.79 87.28 43.25 89.09 45.28 83.81 50.04 87.65 56.24 106.44 56.24 134.43 9.47"/><polygon class="cls-1" points="92.58 309.33 92.58 309.32 92.56 298.54 90.2 298.54 90.22 309.32 90.22 309.33 92.58 309.33"/><polygon class="cls-1" points="96.29 295.77 96.27 284.71 93.64 284.71 93.66 295.77 96.29 295.77"/><polygon class="cls-1" points="13.75 391.63 13.74 391.64 13.51 392.24 14.12 392.05 14.13 392.05 82.29 370.07 40.45 325.18 13.75 391.63"/><polygon class="cls-1" points="106.85 309.33 106.85 298.54 104.22 298.54 104.24 309.32 104.24 309.33 106.85 309.33"/><path class="cls-1" d="M109.84,256.19h-5.72l.03,12.17h5.47v16.34h-5.44l.03,11.06h5.41v16.34h-5.37l.02,8.04h6.11c.12,0,.24,0,.36,0l26.11-34.24,.21-.74h0s-27.22-71.21-27.22-71.21v42.22Z"/><polygon class="cls-1" points="106.85 271.14 104.16 271.14 104.18 281.93 106.85 281.93 106.85 271.14"/><polygon class="cls-1" points="92.49 268.36 92.46 256.19 90.1 256.19 90.13 268.36 92.49 268.36"/><polygon class="cls-1" points="92.55 295.77 92.53 284.71 90.17 284.71 90.19 295.77 92.55 295.77"/><polygon class="cls-1" points="92.52 281.93 92.5 271.14 90.13 271.14 90.16 281.93 92.52 281.93"/><polygon class="cls-1" points="92.62 320.15 92.59 312.11 90.23 312.11 90.25 320.15 92.62 320.15"/><polygon class="cls-1" points="179.15 391.99 152.73 325.37 110.65 370.1 178.77 392.39 178.77 392.4 179.39 392.6 179.16 392 179.15 391.99"/><polygon class="cls-3" points="86.98 245.89 86.98 252.3 88.97 252.3 88.96 245.89 86.98 245.89"/><polygon class="cls-3" points="92.45 252.3 92.43 245.89 90.07 245.89 90.09 252.3 92.45 252.3"/><polygon class="cls-3" points="96.19 252.3 96.18 245.89 93.54 245.89 93.56 252.3 96.19 252.3"/><polygon class="cls-3" points="99.94 252.3 99.92 245.89 97.29 245.89 97.31 252.3 99.94 252.3"/><polygon class="cls-3" points="103 252.3 102.99 245.89 101.03 245.89 101.04 252.3 103 252.3"/><polygon class="cls-3" points="105.96 252.3 105.96 245.89 104.09 245.89 104.11 252.3 105.96 252.3"/><polygon class="cls-3" points="86.98 243.11 88.95 243.11 88.93 236.4 86.98 236.4 86.98 243.11"/><polygon class="cls-3" points="92.43 243.11 92.42 236.4 90.05 236.4 90.06 243.11 92.43 243.11"/><polygon class="cls-3" points="96.17 243.11 96.15 236.4 93.52 236.4 93.54 243.11 96.17 243.11"/><polygon class="cls-3" points="99.91 243.11 99.9 236.4 97.27 236.4 97.28 243.11 99.91 243.11"/><polygon class="cls-3" points="102.98 243.11 102.96 236.4 101.01 236.4 101.03 243.11 102.98 243.11"/><polygon class="cls-3" points="105.96 243.11 105.96 236.4 104.07 236.4 104.09 243.11 105.96 243.11"/><polygon class="cls-3" points="88.52 60.12 86.98 60.12 86.98 72.17 88.55 72.17 88.52 60.12"/><polygon class="cls-3" points="89.63 60.12 89.66 72.17 92.02 72.17 91.99 60.12 89.63 60.12"/><polygon class="cls-3" points="93.1 60.12 93.13 72.17 95.76 72.17 95.73 60.12 93.1 60.12"/><polygon class="cls-3" points="99.47 60.12 96.84 60.12 96.87 72.17 99.51 72.17 99.47 60.12"/><polygon class="cls-3" points="100.59 60.12 100.61 72.17 102.56 72.17 102.54 60.12 100.59 60.12"/><polygon class="cls-3" points="105.96 60.12 103.65 60.12 103.68 72.17 105.96 72.17 105.96 60.12"/><polygon class="cls-3" points="86.98 85.4 88.58 85.4 88.55 74.95 86.98 74.95 86.98 85.4"/><polygon class="cls-3" points="92.05 85.4 92.02 74.95 89.66 74.95 89.7 85.4 92.05 85.4"/><polygon class="cls-3" points="95.79 85.4 95.77 74.95 93.14 74.95 93.16 85.4 95.79 85.4"/><polygon class="cls-3" points="99.54 85.4 99.51 74.95 96.87 74.95 96.91 85.4 99.54 85.4"/><polygon class="cls-3" points="102.6 85.4 102.57 74.95 100.62 74.95 100.64 85.4 102.6 85.4"/><polygon class="cls-3" points="105.96 85.4 105.96 74.95 103.68 74.95 103.71 85.4 105.96 85.4"/><polygon class="cls-3" points="86.98 100.1 88.61 100.1 88.59 88.17 86.98 88.17 86.98 100.1"/><polygon class="cls-3" points="92.09 100.1 92.06 88.17 89.7 88.17 89.73 100.1 92.09 100.1"/><polygon class="cls-3" points="95.83 100.1 95.8 88.17 93.17 88.17 93.19 100.1 95.83 100.1"/><polygon class="cls-3" points="99.57 100.1 99.54 88.17 96.91 88.17 96.94 100.1 99.57 100.1"/><polygon class="cls-3" points="102.64 100.1 102.6 88.17 100.65 88.17 100.68 100.1 102.64 100.1"/><polygon class="cls-3" points="105.96 100.1 105.96 88.17 103.72 88.17 103.75 100.1 105.96 100.1"/><polygon class="cls-3" points="86.98 112.93 88.64 112.93 88.62 102.88 86.98 102.88 86.98 112.93"/><polygon class="cls-3" points="92.11 112.93 92.09 102.88 89.73 102.88 89.75 112.93 92.11 112.93"/><polygon class="cls-3" points="95.86 112.93 95.83 102.88 93.2 102.88 93.23 112.93 95.86 112.93"/><polygon class="cls-3" points="99.59 112.93 99.58 102.88 96.95 102.88 96.97 112.93 99.59 112.93"/><polygon class="cls-3" points="102.66 112.93 102.64 102.88 100.68 102.88 100.71 112.93 102.66 112.93"/><polygon class="cls-3" points="105.96 112.93 105.96 102.88 103.75 102.88 103.77 112.93 105.96 112.93"/><polygon class="cls-3" points="86.98 121.75 88.66 121.75 88.65 115.7 86.98 115.7 86.98 121.75"/><polygon class="cls-3" points="92.14 121.75 92.12 115.7 89.76 115.7 89.78 121.75 92.14 121.75"/><polygon class="cls-3" points="95.87 121.75 95.87 115.7 93.23 115.7 93.25 121.75 95.87 121.75"/><polygon class="cls-3" points="99.62 121.75 99.61 115.7 96.98 115.7 96.99 121.75 99.62 121.75"/><polygon class="cls-3" points="102.68 121.75 102.68 115.7 100.71 115.7 100.73 121.75 102.68 121.75"/><polygon class="cls-3" points="105.96 121.75 105.96 115.7 103.78 115.7 103.8 121.75 105.96 121.75"/><polygon class="cls-3" points="86.98 130.84 88.69 130.84 88.67 124.52 86.98 124.52 86.98 130.84"/><polygon class="cls-3" points="92.16 130.84 92.14 124.52 89.78 124.52 89.8 130.84 92.16 130.84"/><polygon class="cls-3" points="95.9 130.84 95.89 124.52 93.26 124.52 93.26 130.84 95.9 130.84"/><polygon class="cls-3" points="99.64 130.84 99.63 124.52 97 124.52 97.01 130.84 99.64 130.84"/><polygon class="cls-3" points="102.71 130.84 102.69 124.52 100.74 124.52 100.75 130.84 102.71 130.84"/><polygon class="cls-3" points="105.96 130.84 105.96 124.52 103.8 124.52 103.82 130.84 105.96 130.84"/><polygon class="cls-3" points="105.96 140.05 105.96 133.61 103.82 133.61 103.84 140.05 105.96 140.05"/><polygon class="cls-3" points="92.18 140.05 92.16 133.61 89.8 133.61 89.82 140.05 92.18 140.05"/><polygon class="cls-3" points="92.2 149.68 92.18 142.82 89.82 142.82 89.84 149.68 92.2 149.68"/><polygon class="cls-3" points="95.92 140.05 95.91 133.61 93.27 133.61 93.29 140.05 95.92 140.05"/><polygon class="cls-3" points="95.95 149.68 95.93 142.82 93.3 142.82 93.31 149.68 95.95 149.68"/><polygon class="cls-3" points="99.67 140.05 99.65 133.61 97.02 133.61 97.03 140.05 99.67 140.05"/><polygon class="cls-3" points="99.68 149.68 99.67 142.82 97.03 142.82 97.06 149.68 99.68 149.68"/><polygon class="cls-3" points="102.73 140.05 102.72 133.61 100.75 133.61 100.77 140.05 102.73 140.05"/><polygon class="cls-3" points="102.75 149.68 102.73 142.82 100.78 142.82 100.79 149.68 102.75 149.68"/><polygon class="cls-3" points="105.96 149.68 105.96 142.82 103.84 142.82 103.86 149.68 105.96 149.68"/><polygon class="cls-3" points="95.97 160.25 95.95 152.46 93.32 152.46 93.34 160.25 95.97 160.25"/><polygon class="cls-3" points="99.71 160.25 99.69 152.46 97.07 152.46 97.08 160.25 99.71 160.25"/><polygon class="cls-3" points="102.78 160.25 102.76 152.46 100.8 152.46 100.83 160.25 102.78 160.25"/><polygon class="cls-3" points="105.96 160.25 105.96 152.46 103.87 152.46 103.89 160.25 105.96 160.25"/><polygon class="cls-3" points="92.23 160.25 92.22 152.46 89.85 152.46 89.87 160.25 92.23 160.25"/><polygon class="cls-3" points="89.87 163.02 89.89 169.07 92.25 169.07 92.23 163.02 89.87 163.02"/><polygon class="cls-3" points="95.99 169.07 95.98 163.02 93.34 163.02 93.36 169.07 95.99 169.07"/><polygon class="cls-3" points="99.74 169.07 99.72 163.02 97.09 163.02 97.11 169.07 99.74 169.07"/><polygon class="cls-3" points="102.8 169.07 102.79 163.02 100.83 163.02 100.84 169.07 102.8 169.07"/><polygon class="cls-3" points="105.96 169.07 105.96 163.02 103.89 163.02 103.91 169.07 105.96 169.07"/><polygon class="cls-3" points="86.98 140.05 88.71 140.05 88.69 133.61 86.98 133.61 86.98 140.05"/><polygon class="cls-3" points="86.98 149.68 88.73 149.68 88.71 142.82 87.02 142.82 87.02 142.81 86.98 142.81 86.98 149.68"/><polygon class="cls-3" points="86.98 160.25 88.76 160.25 88.73 152.46 87.02 152.46 87.02 152.44 86.98 152.44 86.98 160.25"/><polygon class="cls-3" points="86.98 169.07 88.77 169.07 88.77 163.02 86.98 163.02 86.98 169.07"/><polygon class="cls-3" points="96.02 178.15 96 171.84 93.37 171.84 93.38 178.15 96.02 178.15"/><polygon class="cls-3" points="96.04 187.35 96.03 180.93 93.39 180.93 93.41 187.35 96.04 187.35"/><polygon class="cls-3" points="96.06 197 96.04 190.13 93.41 190.13 93.43 197 96.06 197"/><polygon class="cls-3" points="96.08 206.35 96.07 199.77 93.43 199.77 93.45 206.35 96.08 206.35"/><polygon class="cls-3" points="96.11 215.17 96.09 209.13 93.46 209.13 93.47 215.17 96.11 215.17"/><polygon class="cls-3" points="96.13 224.26 96.11 217.95 93.48 217.95 93.5 224.26 96.13 224.26"/><polygon class="cls-3" points="99.75 178.15 99.74 171.84 97.11 171.84 97.13 178.15 99.75 178.15"/><polygon class="cls-3" points="99.78 187.35 99.76 180.93 97.13 180.93 97.15 187.35 99.78 187.35"/><polygon class="cls-3" points="99.8 197 99.79 190.13 97.15 190.13 97.17 197 99.8 197"/><polygon class="cls-3" points="99.83 206.35 99.81 199.77 97.18 199.77 97.19 206.35 99.83 206.35"/><polygon class="cls-3" points="99.85 215.17 99.83 209.13 97.2 209.13 97.22 215.17 99.85 215.17"/><polygon class="cls-3" points="99.87 224.26 99.85 217.95 97.22 217.95 97.23 224.26 99.87 224.26"/><polygon class="cls-3" points="92.4 233.3 92.39 227.04 90.02 227.04 90.04 233.3 92.4 233.3"/><polygon class="cls-3" points="86.98 178.15 88.8 178.15 88.78 171.84 86.98 171.84 86.98 178.15"/><polygon class="cls-3" points="86.98 196.99 88.84 196.99 88.82 190.13 86.98 190.13 86.98 196.99"/><polygon class="cls-3" points="86.98 215.17 88.89 215.17 88.87 209.14 86.98 209.14 86.98 215.17"/><polygon class="cls-3" points="86.98 224.26 88.91 224.26 88.89 217.95 86.98 217.95 86.98 224.26"/><polygon class="cls-3" points="86.98 233.3 88.93 233.3 88.91 227.04 87.02 227.04 87.02 227.02 86.98 227.02 86.98 233.3"/><polygon class="cls-3" points="92.38 224.26 92.37 217.95 90 217.95 90.02 224.26 92.38 224.26"/><polygon class="cls-3" points="89.9 171.84 89.91 178.15 92.27 178.15 92.26 171.84 89.9 171.84"/><polygon class="cls-3" points="89.93 187.35 92.3 187.35 92.28 180.93 89.91 180.93 89.93 187.35"/><polygon class="cls-3" points="92.34 206.35 92.32 199.77 89.96 199.77 89.98 206.35 92.34 206.35"/><polygon class="cls-3" points="92.36 215.17 92.34 209.13 89.98 209.13 90 215.17 92.36 215.17"/><polygon class="cls-3" points="96.15 233.3 96.13 227.04 93.5 227.04 93.51 233.3 96.15 233.3"/><polygon class="cls-3" points="99.88 233.3 99.87 227.04 97.24 227.04 97.26 233.3 99.88 233.3"/><polygon class="cls-3" points="102.95 233.3 102.94 227.04 100.99 227.04 100.99 233.3 102.95 233.3"/><polygon class="cls-3" points="105.96 233.3 105.96 227.04 104.05 227.04 104.06 233.3 105.96 233.3"/><polygon class="cls-3" points="102.93 224.26 102.92 217.95 100.96 217.95 100.97 224.26 102.93 224.26"/><polygon class="cls-3" points="105.96 224.26 105.96 217.95 104.03 217.95 104.04 224.26 105.96 224.26"/><polygon class="cls-3" points="102.82 178.15 102.8 171.84 100.85 171.84 100.87 178.15 102.82 178.15"/><polygon class="cls-3" points="102.84 187.35 102.83 180.93 100.87 180.93 100.89 187.35 102.84 187.35"/><polygon class="cls-3" points="102.89 206.35 102.88 199.77 100.91 199.77 100.94 206.35 102.89 206.35"/><polygon class="cls-3" points="102.91 215.17 102.89 209.13 100.94 209.13 100.95 215.17 102.91 215.17"/><polygon class="cls-3" points="105.96 178.15 105.96 171.84 103.92 171.84 103.92 178.15 105.96 178.15"/><polygon class="cls-3" points="105.96 197 105.96 190.13 103.96 190.13 103.98 197 105.96 197"/><polygon class="cls-3" points="105.96 215.17 105.96 209.13 104 209.13 104.02 215.17 105.96 215.17"/><polygon points="88.82 187.46 88.82 187.35 88.56 187.35 88.82 187.46"/><path class="cls-3" d="M149.84,249.96l-7.47,26.63h0s-2.98,10.6-2.98,10.6l-1.04,1.37-24.78,32.49c.7,.42,1.3,.98,1.78,1.64l24.1-31.27v-.02l1.62-2.1,2.62-9.25h0s7.75-27.39,7.75-27.39l-1.6-2.71Z"/><path class="cls-4" d="M113.83,326.31s0,.07,0,.11l.26,.2-.26-.4s0,.06,0,.09Z"/><polygon points="89.95 196.78 89.87 197 89.95 197 89.95 196.78"/><path d="M156.57,313.77l-1.15-3.02-10.07-26.32h0s9.1-32.16,9.1-32.16l-5.55-9.37-8.22,29.31-30.85-80.72V58.13L141.54,5.16l-18.39,1.07-1.02,.9-1.86-2.06,2.28-2.05-2.73-3.03-6.28,5.65,2.72,3.03,1.94-1.74,1.84,2.04-5.6,4.98-1.81-2.01,2.1-1.9-2.72-3.03-6.29,5.65,2.72,3.03,2.12-1.9,1.8,2-5.86,5.2-1.77-1.96,2.06-1.86-2.72-3.03-6.29,5.65,2.73,3.03,2.15-1.94,1.75,1.94-6.01,5.34-1.71-1.9,2.18-1.96-2.73-3.03-6.28,5.65,2.72,3.03,2.04-1.83,1.7,1.89-5.86,5.19-1.67-1.85,2.09-1.88-2.72-3.03-6.28,5.65,2.72,3.03,2.13-1.91,1.66,1.83h0s-5.91,5.25-5.91,5.25l-1.62-1.8,2.1-1.89-2.73-3.03-6.28,5.66,2.72,3.03,2.12-1.9,1.62,1.79-3.13,2.78,5.79,9.36V192.24l-45.32,118.59,.32,.34,5.77,6.19,39.23-102.65v41.47h5.89l.03,12.17h-5.02v16.34h5.06l.02,11.06h-5.08v16.34h5.12l.02,8.04h-7.02c-3.39,0-6.16,2.76-6.16,6.16s2.77,6.16,6.16,6.16h28.26c3.4,0,6.17-2.76,6.17-6.16,0-.18,0-.38-.02-.56l24.09-31.27,8.72,22.81,.07,.18,6.07-6.46,1.1,2.76Zm-19.52-28.6h0s-.21,.74-.21,.74l-26.11,34.24c-.12,0-.24,0-.36,0h-6.11l-.02-8.04h5.37v-16.34h-5.41l-.03-11.06h5.44v-16.34h-5.47l-.03-12.17h5.72v-42.22l27.22,71.2Zm-32.84,13.37h2.63v10.79h-2.61s-.02-10.79-.02-10.79Zm-.06-27.4h2.7v10.79h-2.67l-.02-10.79Zm1.8-196.2v10.45h-2.25l-.02-10.45h2.27Zm-2.28-2.78l-.02-12.04h2.3v12.04h-2.28Zm2.28,16.01v11.92h-2.21l-.03-11.92h2.24Zm0,14.7v10.05h-2.18l-.02-10.05h2.21Zm0,12.83v6.05h-2.16l-.02-6.05h2.18Zm0,8.82v6.31h-2.14l-.02-6.31h2.15Zm0,9.09v6.43h-2.12l-.02-6.43h2.14Zm0,9.2v6.87h-2.1l-.02-6.87h2.11Zm0,9.64v7.79h-2.06l-.02-7.79h2.09Zm0,10.56v6.05h-2.05l-.02-6.05h2.06Zm0,8.83v6.31h-2.03v-6.31s2.03,0,2.03,0Zm0,9.08v6.43h-2.01v-6.43s2.01,0,2.01,0Zm0,9.2v6.87h-1.98l-.02-6.87h1.99Zm0,9.64v6.58h-1.96l-.02-6.58h1.98Zm0,9.36v6.04h-1.94l-.02-6.04h1.95Zm0,8.82v6.31h-1.92v-6.31s1.92,0,1.92,0Zm0,9.09v6.27h-1.9v-6.27s1.9,0,1.9,0Zm0,9.36v6.71h-1.86l-.02-6.71h1.89Zm0,9.48v6.42h-1.85l-.02-6.42h1.86Zm-18.97,6.42v-6.42h1.98l.02,6.42h-1.99Zm1.57-177.36l.03,10.45h-1.6v-10.45h1.57Zm-1.57-2.78v-12.04h1.54l.03,12.04h-1.57Zm1.61,16.01l.02,11.92h-1.63v-11.92h1.61Zm.03,14.7l.02,10.05h-1.66v-10.05h1.64Zm.02,12.83l.02,6.05h-1.68v-6.05h1.66Zm.02,8.82l.02,6.31h-1.7v-6.31h1.69Zm.02,9.09l.02,6.43h-1.73v-6.43h1.71Zm-1.67,9.2h0s1.69,0,1.69,0l.02,6.87h-1.75v-6.87h.04Zm0,9.64v.02h1.71l.02,7.79h-1.78v-7.8h.04Zm1.74,10.57v6.05s-1.78,0-1.78,0v-6.05h1.78Zm.02,8.83l.02,6.31h-1.82v-6.31h1.8Zm.02,9.08l.02,6.43v.1l-.26-.1h-1.58v-6.43h1.82Zm.02,9.2l.02,6.86h-1.86v-6.86h1.84Zm-.02,9.65h0s.04,0,.04,0h0s.02,6.58,.02,6.58h-1.88v-6.57h1.82Zm.06,9.36l.02,6.03h-1.9v-6.03h1.89Zm.02,8.8l.02,6.31h-1.93v-6.31h1.91Zm-1.87,9.08v.02h1.89l.02,6.27h-1.95v-6.28h.04Zm1.91,9.38l.02,6.71h-1.97v-6.71h1.95Zm-2.16,45.53v-10.79h2.25l.02,10.79h-2.27Zm2.34,27.4h-2.34v-10.79h2.31l.02,10.78h0Zm-1.46-253.08l-3.84-6.2,5.29-4.76-1.82-2.02,1.66-1.46,1.81,2.01,6.28-5.65-1.77-1.97,1.7-1.51,1.76,1.96,6.28-5.65-1.72-1.92,1.65-1.46,1.71,1.9,6.29-5.65-1.68-1.86,1.65-1.46,1.67,1.86,6.29-5.66-1.63-1.82,1.53-1.36,1.62,1.81,6.15-5.54h0l5.88-.34-27.99,46.78h-18.8Zm13.51,242.3h1.95l.02,10.78h0s-1.95,0-1.95,0h0s-.02-10.79-.02-10.79Zm1.42-223.6l.02,10.45h-1.95l-.02-10.45h1.95Zm-1.96-2.78l-.02-12.04h1.95l.02,12.04h-1.95Zm1.99,16.01l.03,11.92h-1.95l-.03-11.92h1.95Zm.03,14.7l.02,10.05h-1.95l-.02-10.05h1.95Zm.04,12.83v6.05s-1.94,0-1.94,0l-.02-6.05h1.96Zm.02,8.82l.02,6.31h-1.95l-.02-6.31h1.95Zm.02,9.09l.02,6.43h-1.96l-.02-6.43h1.96Zm.02,9.2l.02,6.87h-1.95l-.02-6.87h1.95Zm.02,9.64l.02,7.79h-1.95l-.02-7.79h1.95Zm.03,10.56l.02,6.05h-1.96l-.02-6.05h1.96Zm.02,8.83l.02,6.31h-1.95l-.02-6.31h1.95Zm.02,9.08v6.43s-1.94,0-1.94,0l-.02-6.43h1.95Zm-1.93,9.2h1.95v5.58s.02,1.29,.02,1.29h-1.95l-.02-6.43v-.43Zm1.98,9.64l.02,6.58h-1.95l-.02-6.58h1.96Zm.02,9.36l.02,6.04h-1.95l-.02-6.04h1.95Zm.02,8.82l.02,6.31h-1.96v-6.31s1.94,0,1.94,0Zm.02,9.09v6.27s-1.94,0-1.94,0v-6.27s1.94,0,1.94,0Zm.02,9.36l.02,6.71h-1.95l-.02-6.71h1.95Zm.02,9.48v6.42s-1.94,0-1.94,0l-.02-6.42h1.96Zm.02,10.31l.03,12.17h-1.95l-.03-12.17h1.95Zm.04,14.95l.02,10.79h-1.95l-.02-10.79h1.95Zm.03,13.56l.02,11.06h-1.95l-.02-11.06h1.95Zm.06,27.4l.02,8.04h-1.95l-.02-8.04h1.95Zm-5.72-13.56h2.63l.02,10.78h0s-2.63,0-2.63,0h0s-.02-10.79-.02-10.79Zm2.09-223.6l.03,10.45h-2.63l-.03-10.45h2.63Zm-2.66-14.82h2.63l.03,12.04h-2.63l-.03-12.04Zm2.7,28.05l.03,11.92h-2.63l-.02-11.92h2.62Zm.04,14.7l.02,10.05h-2.62l-.02-10.05h2.63Zm.03,12.83v6.05s-2.62,0-2.62,0v-6.05s2.62,0,2.62,0Zm.02,8.82l.02,6.31h-2.63v-6.31s2.62,0,2.62,0Zm.02,9.09l.02,6.43h-2.63l-.02-6.43h2.63Zm.02,9.2l.02,6.87h-2.62l-.02-6.87h2.63Zm.02,9.64l.02,7.79h-2.63l-.02-7.79h2.62Zm.03,10.56l.02,6.05h-2.63l-.02-6.05h2.63Zm.02,8.83l.02,6.31h-2.62l-.02-6.31h2.63Zm.02,9.08l.02,6.43h-2.63l-.02-6.43h2.63Zm.02,9.2l.02,6.87h-2.63l-.02-6.87h2.63Zm.02,9.64l.02,6.58h-2.63l-.02-6.58h2.63Zm.02,9.36l.02,6.04h-2.63l-.02-6.04h2.62Zm.02,8.82l.02,6.31h-2.63l-.02-6.31h2.63Zm.02,9.09v6.27s-2.62,0-2.62,0l-.02-6.27h2.63Zm.02,9.36l.02,6.71h-2.63l-.02-6.71h2.63Zm.02,9.48l.02,6.42h-2.63l-.02-6.42h2.63Zm.02,10.31l.03,12.17h-2.62l-.04-12.17h2.63Zm.04,14.95l.02,10.79h-2.63l-.02-10.79h2.63Zm.03,13.56l.02,11.06h-2.63l-.02-11.06h2.63Zm.06,27.4l.02,8.04h-2.63l-.02-8.04h2.63Zm-6.4-13.56h2.63l.02,10.78h0s-2.63,0-2.63,0h0s-.02-10.79-.02-10.79Zm2.1-223.6l.02,10.45h-2.63l-.02-10.45h2.63Zm-2.64-2.78l-.02-12.04h2.62l.03,12.04h-2.63Zm2.67,16.01l.02,11.92h-2.63l-.02-11.92h2.63Zm.03,14.7l.02,10.05h-2.62l-.03-10.05h2.63Zm.03,12.83v6.05s-2.62,0-2.62,0l-.02-6.05h2.63Zm.02,8.82v6.31s-2.62,0-2.62,0v-6.31s2.62,0,2.62,0Zm.02,9.09l.02,6.43h-2.63l-.02-6.43h2.63Zm.02,9.2l.02,6.87h-2.63l-.02-6.87h2.63Zm.02,9.64l.02,7.79h-2.63l-.02-7.79h2.63Zm.02,10.56l.02,6.05h-2.63l-.02-6.05h2.63Zm.02,8.83l.02,6.31h-2.63l-.02-6.31h2.63Zm.02,9.08l.02,6.43h-2.63l-.02-6.43h2.63Zm.02,9.2l.02,6.87h-2.62l-.02-6.87h2.63Zm.02,9.64l.02,6.58h-2.63l-.02-6.58h2.63Zm.02,9.36l.02,6.04h-2.63l-.02-6.04h2.63Zm.02,8.82l.02,6.31h-2.63l-.02-6.31h2.63Zm.02,9.09l.02,6.27h-2.63v-6.27s2.62,0,2.62,0Zm.02,9.36l.02,6.71h-2.63l-.02-6.71h2.63Zm.02,9.48l.02,6.42h-2.63l-.02-6.42h2.63Zm.02,10.31l.03,12.17h-2.63l-.03-12.17h2.63Zm.04,14.95l.02,10.79h-2.63l-.02-10.79h2.63Zm.03,13.56l.02,11.06h-2.62l-.02-11.06h2.63Zm.06,27.4l.02,8.04h-2.63l-.02-8.04h2.62Zm-6.13-13.56h2.36l.02,10.78h0s-2.37,0-2.37,0h0s-.02-10.79-.02-10.79Zm1.82-223.6l.02,10.45h-2.35l-.03-10.45h2.36Zm-2.37-2.78l-.02-12.04h2.36l.02,12.04h-2.36Zm2.4,16.01l.03,11.92h-2.36l-.03-11.92h2.36Zm.03,14.7l.02,10.05h-2.36l-.02-10.05h2.36Zm.03,12.83l.02,6.05h-2.36l-.02-6.05h2.36Zm.02,8.82l.02,6.31h-2.36l-.02-6.31h2.36Zm.02,9.09l.02,6.43h-2.35l-.02-6.43h2.36Zm.02,9.2l.02,6.87h-2.36l-.02-6.87h2.36Zm.03,9.64l.02,7.79h-2.36l-.02-7.79h2.37Zm-2.3,25.69l-.02-6.31h2.36l.02,6.31h-2.36Zm2.37,2.78l.02,6.43h-2.37l-.02-6.43h2.37Zm-2.39-11.86l-.02-6.05h2.36l.02,6.05h-2.36Zm.06,27.71l-.02-6.65h2.37v.5l.02,6.36h-2.45l.08-.22Zm2.37,2.99l.02,6.58h-2.37l-.02-6.58h2.36Zm.02,9.36l.02,6.04h-2.36l-.02-6.04h2.36Zm.02,8.82l.02,6.31h-2.36l-.02-6.31h2.37Zm.02,9.09v6.27s-2.35,0-2.35,0l-.02-6.27h2.37Zm.02,9.36l.02,6.71h-2.37l-.02-6.71h2.37Zm.02,9.48l.02,6.42h-2.36l-.02-6.42h2.36Zm.02,10.31l.03,12.17h-2.36l-.03-12.17h2.36Zm.04,14.95l.02,10.79h-2.36l-.03-10.79h2.37Zm.03,13.56l.02,11.06h-2.36l-.02-11.06h2.36Zm.06,27.4l.02,8.04h-2.37l-.02-8.04h2.36Zm21.23,14.32c0,.11,0,.22-.02,.34,0,.02,0,.02,0,.04,0,.1-.02,.2-.06,.3-.02,.11-.05,.22-.09,.32-.02,.06-.04,.13-.07,.18,0,.04-.02,.09-.05,.13,0,.02-.02,.04-.02,.06-.04,.08-.08,.16-.13,.24-.05,.1-.11,.18-.18,.27-.06,.1-.13,.18-.21,.27,0,0-.02,.02-.02,.02-.07,.08-.14,.16-.22,.23-.08,.09-.17,.16-.26,.22-.09,.08-.18,.14-.29,.2-.06,.05-.14,.09-.2,.12-.13,.06-.26,.13-.39,.18-.13,.06-.26,.1-.41,.12-.04,.02-.08,.02-.12,.03-.09,.02-.18,.04-.29,.05-.13,.02-.27,.02-.41,.02h-28.26c-1.9,0-3.46-1.55-3.46-3.46s1.55-3.46,3.46-3.46h28.26c.14,0,.26,0,.39,.02,.14,.02,.26,.03,.38,.06,.02,0,.02,0,.04,0,.07,.02,.15,.03,.22,.06h0c.09,.02,.17,.06,.24,.09,.07,.02,.14,.06,.22,.09,0,0,0,0,0,0,.15,.07,.3,.16,.44,.26,.07,.05,.14,.1,.2,.15,.06,.05,.13,.1,.19,.16s.12,.11,.18,.18c.06,.06,.11,.13,.17,.19,.04,.05,.08,.1,.11,.14,.09,.13,.18,.26,.25,.4,.06,.1,.1,.21,.15,.32,.16,.38,.25,.78,.26,1.22h0s.26,.41,.26,.41l-.26-.2Zm29.87-46.37l-2.62,9.25-1.62,2.1v.02l-24.1,31.27c-.47-.66-1.08-1.22-1.78-1.64l24.78-32.49,1.04-1.37,2.98-10.59h0s7.47-26.64,7.47-26.64l1.6,2.71-7.75,27.38h0Z"/><path class="cls-3" d="M113.82,326.22h0c0-.44-.1-.85-.26-1.22-.05-.11-.1-.22-.15-.32-.07-.14-.16-.27-.25-.4-.03-.05-.07-.1-.11-.14-.06-.06-.11-.14-.17-.19-.06-.06-.11-.12-.18-.18s-.13-.11-.19-.16c-.06-.06-.13-.1-.2-.15-.14-.1-.29-.18-.44-.26,0,0,0,0,0,0-.07-.03-.14-.06-.22-.09-.07-.03-.15-.06-.24-.09h0c-.06-.03-.14-.05-.22-.06-.02,0-.02,0-.04,0-.12-.03-.25-.05-.38-.06-.13-.02-.26-.02-.39-.02h-28.26c-1.9,0-3.46,1.55-3.46,3.46s1.55,3.46,3.46,3.46h28.26c.14,0,.28,0,.41-.02,.1,0,.2-.02,.29-.05,.04,0,.08-.02,.12-.03,.14-.02,.28-.06,.41-.12,.14-.05,.26-.11,.39-.18,.06-.03,.14-.07,.2-.12,.1-.06,.2-.12,.29-.2,.1-.06,.18-.14,.26-.22,.08-.07,.15-.15,.22-.23,0,0,.02-.02,.02-.02,.08-.09,.14-.18,.21-.27,.06-.09,.13-.18,.18-.27,.05-.08,.09-.16,.13-.24,0-.02,.02-.04,.02-.06,.02-.04,.04-.09,.05-.13,.03-.06,.05-.12,.07-.18,.04-.1,.07-.21,.09-.32,.03-.1,.05-.19,.06-.3,0-.02,0-.02,0-.04,.02-.11,.02-.22,.02-.34,0-.04,0-.07,0-.11,0-.03,0-.06,0-.09Z"/><polygon class="cls-3" points="105.96 206.35 105.96 199.77 103.98 199.77 104 206.35 105.96 206.35"/><polygon class="cls-3" points="102.87 197 102.86 195.71 102.85 190.13 100.9 190.13 100.9 190.56 100.91 197 102.87 197"/><polygon class="cls-3" points="86.98 206.35 88.86 206.35 88.85 199.78 88.81 199.78 86.98 199.78 86.98 206.35"/><polygon class="cls-3" points="92.32 197 92.3 190.63 92.3 190.13 89.94 190.13 89.95 196.78 89.95 197 92.32 197"/><polygon class="cls-3" points="105.96 187.35 105.96 180.93 103.94 180.93 103.95 187.35 105.96 187.35"/><polygon class="cls-3" points="86.98 187.35 88.56 187.35 88.82 187.35 88.81 180.93 86.98 180.93 86.98 187.35"/><rect class="cls-4" x="88.81" y="199.77" width=".04" height="0"/><path class="cls-2" d="M189.81,397.59l-3.75-9.43-29.45-74.27-.04-.11-1.1-2.76-6.07,6.46-52.91,56.26,78.84,25.79,9.61,3.15,7.91,2.58-3.04-7.67Zm-11.04-5.19h0s-68.11-22.3-68.11-22.3l42.08-44.74,26.42,66.62h0s.23,.61,.23,.61l-.62-.2Z"/><path class="cls-2" d="M37.77,310.84l-.02-.02L6.85,387.77l-3.78,9.4-3.07,7.66,7.91-2.55,9.62-3.11,78.89-25.42-52.28-56.08-.28-.3-5.77-6.19-.32-.34Zm44.52,59.24l-68.16,21.98h0l-.62,.19,.23-.6h0s26.7-66.45,26.7-66.45l41.85,44.89Z"/></svg>