<?xml version="1.0" encoding="UTF-8"?><svg id="Livello_1" xmlns="http://www.w3.org/2000/svg" viewBox="0 0 409.7 249.71"><defs><style>.cls-1{fill:#d42324;}.cls-2{fill:#1d1d1b;}</style></defs><path class="cls-2" d="M255.56,185.38l-.33,.3-1.66,1.52-.08,.08,.2-.37c.04-.08,.08-.15,.12-.23l1.1-2.06c.09-.17,.2-.33,.33-.47v1.33c.1-.05,.22-.08,.33-.11Z"/><g><path d="M294.59,41.46h-73.45c-9.37,0-16.98,7.62-16.98,16.99v18.24c0,9.36,7.61,16.98,16.98,16.98h18.65l15.44,20.28v71.54c.1-.04,.22-.08,.33-.11l-.33,.3-1.66,1.52-.09,.09-31.26,28.6c-1.15,1.04-1.22,2.83-.17,3.98,.56,.61,1.32,.92,2.08,.92,.68,0,1.36-.25,1.9-.75l19.38-17.73-14.99,27.93c-.73,1.38-.22,3.08,1.15,3.82,.43,.23,.88,.34,1.33,.34,1.01,0,1.98-.55,2.49-1.49l19.84-36.96v14.98c0,1.55,1.26,2.82,2.82,2.82s2.82-1.27,2.82-2.82v-15.13l11.5,9.84,4.3,3.69,17.04,14.6c.54,.46,1.19,.67,1.83,.67,.8,0,1.59-.33,2.15-.97,1.01-1.19,.88-2.98-.3-3.98l-17.31-14.82-4.29-3.68-14.92-12.78V113.95l15.43-20.28h18.29c9.37,0,16.98-7.62,16.98-16.98v-18.24c0-9.37-7.61-16.99-16.98-16.99Zm-36.54,66.88l-10.93-14.36h21.86l-10.93,14.36Zm47.88-31.65c0,6.25-5.08,11.33-11.34,11.33h-73.45c-6.25,0-11.34-5.08-11.34-11.33v-18.24c0-6.26,5.09-11.35,11.34-11.35h73.45c6.26,0,11.34,5.09,11.34,11.35v18.24Z"/><path class="cls-2" d="M255.56,185.38l-.33,.3v-.19c.1-.04,.22-.08,.33-.11Z"/><path class="cls-2" d="M255.56,185.38l-.33,.3-1.66,1.52c.02-.09,.06-.18,.11-.28,.04-.07,.07-.15,.12-.22,.08-.15,.18-.29,.29-.42,.32-.36,.72-.64,1.14-.79,.1-.04,.22-.08,.33-.11Z"/></g><path class="cls-2" d="M260.57,188.12l-.78-.67,.08-.15c.38-.71,.42-1.51,.2-2.22,.78,.85,.93,2.05,.5,3.04Z"/><g><path d="M369.93,11.84c-8.25-.84-18.96-1.33-30.47-1.39,.02-.11,.03-.24,.03-.35V2.82c0-1.56-1.27-2.82-2.82-2.82s-2.82,1.26-2.82,2.82v7.28c0,.11,0,.24,.03,.35-11.6,.07-22.42,.55-30.72,1.39-13.74,1.39-16.25,3.17-16.25,6.16s2.51,4.78,16.25,6.16c8.29,.85,19.09,1.34,30.69,1.4,.89,0,1.8,0,2.7,0,.99,0,1.97,0,2.94,0,11.5-.08,22.21-.56,30.44-1.4,13.73-1.38,16.25-3.16,16.25-6.16s-2.52-4.77-16.25-6.16Zm-33.39,8.09c-16.83,0-29.86-.89-37.46-1.93,7.6-1.02,20.63-1.92,37.46-1.92s29.85,.89,37.46,1.92c-7.61,1.03-20.63,1.93-37.46,1.93Z"/><g><path d="M409.12,215.7l-68.45-89.99c-.32-.41-.72-.72-1.18-.9V25.55c-.97,0-1.96,0-2.94,0-.9,0-1.81,0-2.7,0V125.08c-.25,.17-.48,.38-.67,.63l-57.39,75.44,4.29,3.69,26.56-34.92,27.21,8.63v18.7c0,1.56,1.26,2.82,2.82,2.82s2.82-1.26,2.82-2.82v-18.46l27.76-8.81,37.38,49.14c.55,.72,1.39,1.11,2.25,1.11,.59,0,1.19-.19,1.7-.57,1.24-.94,1.49-2.72,.54-3.96Zm-75.27-43.08l-23.58-7.47,23.58-31.01v38.48Zm5.64,.24v-39.38l24.13,31.73-24.13,7.65Z"/><path class="cls-2" d="M280.08,204.84l-3.41,4.49-7.46,9.8c-.55,.72-1.4,1.11-2.25,1.11-.6,0-1.19-.19-1.71-.57-1.24-.94-1.48-2.72-.54-3.96l7.65-10.06,3.42-4.49,4.29,3.69Z"/></g></g><path class="cls-2" d="M38.58,188.88L6.54,238.97c-.68,1.06-1.82,1.64-3,1.64-.65,0-1.32-.18-1.91-.56-1.65-1.06-2.13-3.26-1.07-4.91l34.55-54.03"/><path class="cls-2" d="M69.23,88.89c-1.21,0-2.37-.7-2.89-1.89-.7-1.6,.02-3.46,1.62-4.16l10.07-4.43c1.6-.7,3.46,.02,4.16,1.62,.7,1.6-.02,3.46-1.62,4.16l-10.07,4.43c-.41,.18-.84,.27-1.27,.27Z"/><path class="cls-2" d="M39.12,120.35l-4.61,10c-.15,.34-.36,.63-.61,.87-.59,.62-1.41,.96-2.26,.96-.44,0-.89-.09-1.32-.28-1.59-.73-2.28-2.61-1.55-4.19l4.61-10c.73-1.59,2.6-2.27,4.18-1.55,1,.47,1.64,1.37,1.8,2.38,.09,.6,.02,1.22-.25,1.81Z"/><path class="cls-2" d="M76.47,230.56c-.43,0-.88-.09-1.3-.28l-10.03-4.53c-1.59-.72-2.29-2.59-1.58-4.18,.72-1.59,2.59-2.3,4.18-1.58l10.03,4.53c1.59,.72,2.29,2.59,1.58,4.18-.53,1.17-1.68,1.86-2.88,1.86Z"/><path class="cls-2" d="M182.88,180.23l-4.28,10.14c-.5,1.2-1.67,1.93-2.9,1.93-.41,0-.83-.08-1.23-.24-1.4-.59-2.15-2.09-1.87-3.53,0,0,0-.02,0-.02,.04-.21,.1-.4,.18-.6l4.2-9.93,.09-.21c.68-1.61,2.52-2.36,4.13-1.68,1.6,.67,2.36,2.52,1.68,4.13Z"/><path class="cls-2" d="M178.74,129.11c-.43,.19-.87,.28-1.3,.28-.9,0-1.78-.39-2.37-1.07-.2-.24-.37-.49-.5-.78l-4.54-10.02s-.03-.07-.04-.11c-.65-1.57,.06-3.37,1.61-4.07,1.59-.72,3.46-.02,4.17,1.57l4.54,10.03c.72,1.59,.02,3.46-1.57,4.17Z"/><g><path class="cls-2" d="M138.13,222.76c-3.74,1.89-7.65,3.46-11.71,4.69,.29-.27,.63-.49,1.03-.64l10.28-3.93c.13-.05,.27-.09,.4-.13Z"/><path d="M209.44,245.32c.46,1.9-.71,3.82-2.62,4.28-.28,.07-.56,.1-.84,.1-1.6,0-3.05-1.1-3.45-2.71l-9.59-39.55c-5.92,5.47-12.48,9.79-19.1,12.58-5.35,2.25-10.6,3.4-17.86,5-4.8,1.06-9.64,1.92-14.51,2.58-.36,.52-.87,.94-1.5,1.18l-10.27,3.93c-.37,.14-.76,.21-1.13,.21-1.27,0-2.47-.77-2.95-2.04-.24-.62-.27-1.25-.12-1.85,.14-.6,.46-1.15,.92-1.59,4.06-1.23,7.97-2.81,11.71-4.69h0c.93-.46,1.85-.95,2.76-1.45,4.61-.63,9.18-1.45,13.72-2.45,6.94-1.53,11.96-2.64,16.78-4.66,7.35-3.09,14.63-8.26,20.85-14.87,0,0,0,0,0,0,.21-.21,.4-.43,.61-.65,0-.02,.02-.02,.02-.02,11.15-12.14,18.79-28.93,17.28-46.54-2.76-32.09-34.62-48.49-46.62-54.66-7.61-3.92-15.76-6.83-24.25-8.69-8.87-4.66-18.78-7.58-29.28-8.35l-.02-.22c5.04-.28,10.05-.24,15,.13,0-.37,.07-.76,.21-1.12,.63-1.63,2.46-2.44,4.09-1.81l10.27,3.96c.69,.27,1.24,.76,1.59,1.35,8.83,1.97,17.33,5.03,25.26,9.11,12.87,6.63,46.99,24.18,50.05,59.75,1.61,18.73-6.13,36.6-17.67,49.85l10.64,43.91Z"/></g><path class="cls-1" d="M105.42,230.07c-41.36,0-75-33.65-75-75s33.65-75,75-75,75,33.65,75,75-33.65,75-75,75Zm0-139.49c-35.56,0-64.48,28.93-64.48,64.48s28.93,64.48,64.48,64.48,64.48-28.93,64.48-64.48-28.93-64.48-64.48-64.48Z"/></svg>