<?xml version="1.0" encoding="utf-8"?>
<!-- Generator: Adobe Illustrator 26.5.0, SVG Export Plug-In . SVG Version: 6.00 Build 0)  -->
<svg version="1.1" id="Livello_1" xmlns="http://www.w3.org/2000/svg" xmlns:xlink="http://www.w3.org/1999/xlink" x="0px" y="0px"
	 viewBox="0 0 250 250" style="enable-background:new 0 0 250 250;" xml:space="preserve">
<path d="M170,55c-5.5,0-10,4.5-10,10c0,5.5,4.5,10,10,10s10-4.5,10-10C180,59.5,175.5,55,170,55z M65,15C29.2,15,0,44.2,0,80v90
	c0,35.8,29.2,65,65,65h90c35.8,0,65-29.2,65-65V80c0-35.8-29.2-65-65-65H65z M68.2,32h83.7c28.3,0,51.1,22.8,51.1,51.1v83.7
	c0,28.3-22.8,51.1-51.1,51.1H68.2C39.9,218,17,195.1,17,166.8V83.2C17,54.9,39.9,32,68.2,32z M110,70c-30.3,0-55,24.7-55,55
	s24.7,55,55,55s55-24.7,55-55S140.3,70,110,70z M110,87c21,0,38,17,38,38s-17,38-38,38s-38-17-38-38S89,87,110,87z"/>
</svg>
